<?xml version="1.0" encoding="UTF-8"?>
<svg id="_图层_1" data-name="图层 1" xmlns="http://www.w3.org/2000/svg" viewBox="0 0 860.17 268.9" fill="#fff">
  <path d="M433.19,197.63c-11.07-2.72-14.86-12.95-30.17-21.93-3.69-2.16-8.36-5.79-12.91-4.91s-6.5,6.68-7.94,10.38l-4.61,11.89c-4.13,10.65-10.57,29.63-21.89,28.62-7.77-.69-11.7-10.11-8.65-16.58,1.78-3.76,3.62-6.74,6.26-9.64l6.88-7.55c6.65-7.3,11.94-15.48,16.98-24.02,2.48-4.21,4.08-11.91,1.71-13.01-.61-.28-2.06-.03-2.78.27l-12.15,4.91c-8.26,3.34-19.04-5.5-17.8-13.69.83-5.46,5.71-10.92,11.19-11.77l10.69-1.67,14.39-.46c2.69-.09,6.02-4.01,6.77-6.51,1.1-3.66.63-7.23-.24-10.56-1.85-7.09-9.71-1.5-16.33-3.73-8.08-2.73-11.01-12.13-8.58-19.69.92-2.86,1.99-5.17,3.59-7.51l10.31-15.03c6.6-9.62,15.29-24.37,26.93-19.22,3.04,1.35,6.85,4.99,6.76,9.38-.04,2.31-.94,5.84-2.34,7.64l-8.35,10.79-4.04,6.41c-.62.99-.89,3.28-.3,4.32.66,1.18,3.02,1.77,4.5,1.21,3.36-1.29,7.29-2.39,9.93-4.36,5.29-3.95,10.13-4.8,16.64-3.73,3.67.6,8.1.28,10.5,4.19,1.2,1.96.69,4.64-.46,6.57-1.23,2.07-3.41,3.37-6.04,3.9-2.91.58-5.21,1.64-7.96,2.83-1.41.61-4.11,1.22-5.12,2.48-3.64,4.56-6.58,9.21-8.81,14.51l-5.99,14.23c8.54,5.76,16.7-4.13,27.24.77,4.82,2.24,7.24,8.51,3.89,12.96-1.75,2.32-5.74,4.16-8.63,3.99-12.41-.73-14.02-3.64-27.38,3.75-2.39,1.32-4.53,4.51-4.18,7.39.16,1.3,3.15,2.75,4.46,3.01l21.7,4.36c12.64,2.54,25.26,14.38,24.7,26.08-.28,5.79-6.92,10.12-12.37,8.78Z"/>
  <path d="M256.53,113.84l-8.25-.39c-3.11-.15-6.4-1.55-9.4-2.86-6.07-2.64-10.65-9.68-10.07-16.4.51-5.95,3.75-11.05,5.1-16.7l2.68-11.2c.85-3.54,6.73-8.78,12.72-6.08,4.03,1.82,5.77,8.29,4.44,13.05-1.23,4.4-1.35,8.53-1.34,13.06,0,3.03.62,4.76,3.62,6.13,4.76,2.18,11.07,4.71,16.28,2.82,4.46-1.61,3-6.98,2.79-10.18-.3-4.62-.17-8.22-1.64-12.41-.91-2.58-1.27-5.35-1.3-8.21-2.67-6.44-.86-13.88,4.53-17.69,6.35-1.86,12.02.47,14.51,6.29.86,2,1.69,5.49,1.3,7.64l-4.37,23.86c-.63,3.43-1.9,7.63,2.17,9.85l7.88-.2c1.21-.03,3.58-1.23,4.84-1.67,5.07-1.77,8.69-5.27,10.1-10.58l3.43-12.96c.96-3.61,5.07-7.32,8.93-6.36,3.28.82,6.65,5.76,5.98,9.13-1.52,7.62-2.06,14.44-.55,22.07.75,3.8-.35,7.97-2.34,11.07-4.03,3.86-9.34,4.91-14.63,2.84l-35.15,4.89-12.81,1.27-9.45-.08Z"/>
  <path d="M342.46,164.32c-.62-1.73-1.51-5.11-2.85-6.33l-5.15-4.67c-18.19-12.69-40.69-9.3-59.7,1.25-3.07,1.7-2.98-2.05-7.12-5.03l6.43-7.45c2.26-2.62,6.66-4.1,10.16-4.79l23.48-4.59,27.59-3.1c2.15-.24,4.04-2.29,4.19-3.95.53-5.98-11.19-7.14-18.79-6.28l-54.58,6.17c-10.8,1.22-20.86,2.02-31.51-.33l-7.35,1.25c-4.11.7-8.96,4.39-9.89,8.18-1.56,6.35,2.26,10.98,7.72,13.27,10.75,4.51,19.26-3.7,22.77-.19,1.12,1.12.96,5.1-.22,6.32l-17.79,18.56-7.26,7.65-2.87,2.63c-6.3,5.78-13.51,10.24-21.33,13.57-7.02,3-10.63,10.54-7.52,15.04,3.53,5.1,10.1,6.66,16.03,4.27,7.1-2.86,13.13-8.09,17.64-14.3l11.84-16.28,13.37-18.69c.3-.42,1.72-1.06,2.18-.82.46.24,1.3,1.41,1.35,1.96l1.02,11.61-.04,12.11c-.01,4.86.01,9.69,2.64,13.67,3.98,6.01,11.79,9.43,18.93,7.95l13.43-4.33c3.85-1.24,8.55-.71,12.53-.11l9.46,1.42c7.69.04,14.82-4.93,18.48-11.28,2.45-4.25,4.43-8.89,7.47-12.43,5.46-6.36,8.31-13.51,5.26-21.93ZM305.56,188.3l-9.89,2.18-7.75,2.59c-4.52,1.51-9.3,1.64-12.93-1.58-3.31-2.93-5.03-7.28-4-11.77,1.16-5.02,3.49-7.35,7.8-9.67l9.28-4.99c11.16-6,29-5.58,31.93,6.93,1.53,6.54-9.46,15.23-14.44,16.32Z"/>
  <path d="M103.9,252.65c-1.33-1.53-3.23-5.56-2.96-7.49,1.32-9.7,5.45-12.53,13.34-16.34,6.39-3.09,10.49-8.23,11.73-15.1,3.05-16.91-11.68-.47-32.46-3.38-4.75-.67-9.31-4.67-7.84-9.57,2.42-8.08,16.9-10.25,25.76-8.43,3.67.75,7.48.99,11.09.32,2.67-.49,4.18-2.98,3.66-5.05-.74-2.94-2.96-3.8-6-2.99l-13.06,3.47c-4.41,1.17-10.69-1.63-13.36-5.29-2.99-4.1.59-9.63,4.96-10.68,12.26-2.95,19.88.93,23.76-1.39.74-.45.9-3.03.55-3.81s-1.65-1.78-2.75-2.14c-5.23,2.44-12.12.22-14.13-5.35l-.72-5.26-11.44,9.18-7.45,4.85-15.62,9.73-3.94,3.47-9.75,6.98c-2.55.37-6.94,4.8-8.32,7-3.59,5.73-7.3,10.45-13.65,13.32-1.86.84-5.38,1.17-7.4.12-4-2.07-7.59-6.83-7.09-11.43.41-3.74,3.39-6.65,5.01-9.91,3.22-6.48,8.38-12.81,16.04-13.76,4.3-.53,8.65-.3,12.78-1.88,8.24-3.14,15.71-7.08,23.14-11.72l15.19-13.7-.02-2.18c0-.57-1.09-.98-2.09-1.4l-20.78,9.41c-9.01,3.85-18.98-.4-22.78-9.4-.3-6.16,3.31-11.45,8.74-14.09,10.85-7.82,22.8-3.27,38.37-9.59,5.85-2.38,20.4,1.18,27.4-10.3,1.4-2.29,5.79-1.62,8.26-3.05,1.05-.32,3.02.02,3.64.36,2.79,1.51,3.31,3.3,6.72,4.19l9.68,4.56c3.45,1.53,10.11.03,14.01.1,5.67.11,10.78-.94,16.16-1.44l25.19-2.33c3.02-.28,7.03,3.27,6.89,5.89-.29,5.42-5.76,7.89-10.43,8.31l-7.69.69-15.01,1.38c-5.16.47-10.39.83-15.43,2.21-1.03.28-1.51,3.46-.63,4.14l10,7.78,9.31,5.77c5.68,3.52,11.64,6.45,17.84,8.77,10.48,3.93,15.09-1.94,20.12,1.41,1.19.79,2.73,3.58,2.32,5.08-1.28,4.77-4.3,7.85-8.21,10.35-4.28,2.74-8.79,6.68-14.19,6.97-14.09.77-22.2-17.69-33.33-28.8-6.91-6.9-14.49-12.86-23.83-15.85-9.7-3.11-20.3.41-26.95,7.64l-6.01,6.53c8.52-1.45,15.55-2.36,23.17-4.34,6.72-1.74,13.5-3.52,20.01-.28,2.99,1.49,5.14,4.4,5.19,7.47.06,3.23-2.11,6.66-5.72,7.62l-7,1.87c-1.18.31-2.91,1.36-3.54,2.19-.7.91-.72,4.01.33,4.47,6.43,2.82,13.59-2.73,20.58.09,1.5.61,3.13,2.58,3.46,3.84.43,1.67-.55,4.34-2.02,5.38-2.87,2.04-6.03,2.17-9.45,2.28l-8.6.27c-2.17.07-4.06,1.99-4.93,3.7-.76,1.47-1.04,4.81,1.07,5.76,2.56,1.16,6.33,0,9.13-.68,7.99-1.95,20.21-3.36,20.36,1.88.14,4.79-4.29,7.35-8.64,7.69-6.68.51-12.78,1.52-19.23,3.36-1.69,1.42-2.69,5.16-2.37,7.35l1.8,12.29c.29,10.49-5.81,19.07-13.59,24.97l-9.42,7.13c-5.02,3.8-12,4.54-16.92-1.15Z"/>
  <path d="M88.29,105.8c.15,4.71-2.98,9.11-5.81,10.87-4.45,2.76-8.82,2.25-13.23.17-5.25-2.48-7.39-11.05-4.57-17.81,3.33-7.99,5.8-20.2.93-24.95-1.1-1.07-3.7-.89-5.1-.47l-5.46,1.64c-4.8,1.45-9.95,1.8-14.61-.9-3.2-1.86-6.41-6.49-5.53-10.54,2.74-12.62,14.63-20.53,27.2-19.69l6.05-1.94c5.12-1.64-.2-22.76,18.4-24.57,4.43-.43,8.72,2.33,10.5,5.51,2.45,4.38,2.49,8.38.21,12.93-.87,1.75-.23,6.61,2.62,6.07,4.97-.95,11.88-.12,13.3,6.1,1.23,5.38-2.63,11.68-7.74,13.59l-8.1,3.03c-1.09.41-2.35,2.83-2.22,3.99.17,1.41,2.29,3,3.96,3.13,9.55.72,17.82,5.67,16.77,15.1-.41,3.7-3.36,7.33-7.05,7.92-11.03,1.75-12.91-9.25-18.53-7.94-2.36.55-2.44,4.8-2.38,6.72l.38,12.03Z"/>
  <path d="M22.86,125.89c-4.42-.91-6.74-5.35-6.38-9.4.93-10.38,13.35-12.39,23.71-20.03,10.39-7.65,16.85-20.54,22.64-15.34,2.15,1.93,1.5,4.73,0,7.26-8.34,14.04-13.71,25.51-28.29,35.16-3.43,2.27-7.46,3.22-11.68,2.35Z"/>
  <path d="M133.19,96.4c-5.28,2.64-7.15,9.43-15.02,9.1-1.17-.05-3.35-1.53-3.94-2.55-2.61-4.52,4.4-10.35,9.21-15.17,3.23-3.23-8.15-9.53-1.67-14.42,4.82-3.64,8.84,3.39,11.23,3.16,2.14-.2,2.31-4.85,7.29-5.97,2.43-.54,4.89.58,6.11,2.43,3.24,4.92-5.1,9.35-3.14,14.28l7.17,7.23c3.02,3.05.93,8.9-2.66,10.88-2.86,1.58-6.27.35-8.3-1.94l-6.27-7.05Z"/>
  <path d="M478.83,132.61c1.49,11.81,9.38,16.12,9.38,16.12,7.27,6.89,17.03,8.98,26.22,5.49l8.45-3.22c5.57-2.12,9.05-6.54,11.78-11.6,4.44-8.19,5.9-16.78,3.93-25.93-3.02-14-12.7-25.7-27.04-29.65l-.78-.35c-10.74-2.63-21.59-.25-31.39,4.62-4.9,2.44-8.3,5.5-11.64,9.72-6.48,8.19-9.43,17.33-10.09,27.77-.73,11.55,2.56,22.24,8.56,32.09,8.56,14.06,25.19,20.69,41.01,18.04,4.38-.73,8.81-1.32,12.87-2.97,8.72-3.54,16.97-7.44,24.2-13.47,3.84-3.2,8.63-7.27,10.24-3.72,1.89,4.15-6.72,14.51-12.18,19.54-9.55,8.81-20.35,14.34-32.69,18.07-18.43,5.56-38.11,2.23-50.24-12.94-11.66-14.58-14.42-25.8-16.64-44.03l-1.65-13.59c-.79-6.47-.48-12.35,1.38-18.64,1.74-5.88,5.85-10.21,10.29-14.27,5.11-4.67,10.44-7.99,16.98-10.42,11.5-4.28,23.2-6.57,35.34-5.17l1.36.12c6.09,1.8,12.09,3.63,17.84,7.14l9.88,6.04c.34.21,2.58,1.89,2.58,1.89,4.66,4.08,9.16,8.41,11.7,13.97,1.4,5.96,2.51,11.23,2.08,16.98l-.9,11.98c-.8,10.69-7.83,19.14-17.29,24.16-5.48,2.9-11,6.05-17.31,7.02l-7.28,1.11c-4.53.69-8.42.14-12.75-.59-11.82-2-20.77-9.2-24.63-20.64-3.16-9.35-3.57-18.91.36-28.18,3.71-13,15.02-21.39,28.6-21.85.44-.32,3.33.01,3.33.01,5.86,1.13,11.84,2.96,15.88,7.24,6.25,4.92,8.13,11.78,8.43,19.34.16,3.86.49,7.16-.95,10.94-2.77,7.28-8.51,13-16.35,15.17-6.66,1.84-13.79-1.36-18.04-6.71,0,0-2.47-3.04-3-6.74-.37-2.63-.05-8.68,3.63-11.94,3.32-2.93,7.81-3.44,10.6-.12,3.94,4.67-4.32,4.18-5.36,8.24-.46,1.81.34,4.29,1.8,5.51,3.07,2.57,7.3,1.93,10-1.12,5-5.64,5.28-15.17-.66-20.49-6.41-5.74-16.39-5-22.68.8-5.19,4.79-8.04,12.24-7.15,19.23Z"/>
  <path d="M804.1,193.65l1.21,23.69,1.07,7.09c.92,6.09,1.72,11.7-1.67,17.28l-5.66,4.12c-7.47-.14-14.35-5.3-15.27-13.16-.28-2.4-.48-6.39.02-8.65l3.27-18.39c1.69-7.5,1.59-16.1-3.54-15.25-10.54,1.75-20.41,5.46-29.42,11.14-6.71,4.23-14.42,3.57-19.41-3.45-2.99-4.2-2.34-11.69,1.98-15.15,3.02-2.43,6.78-2.9,10.19-3.81s6.77-1.76,10.44-1.09c3.37.62,6.53.21,9.99-.08,6.54-.55,13.47.61,19.71-2.54,1.64-4.13,2.05-11.4-1.27-14.81-5.96-3.53-13.26,4.09-24.64,5.31-8.67.93-15.1-5.12-15.43-13.66-.15-3.96,1.86-8.96,4.12-11.35l1.37-2.62c1.79-1.79,3.11-4.15,2.97-7.29-4.7,1.1-8.03.64-11.55-2.14-2.93-2.31-4.03-6.59-2.17-10.38,1.15-2.34,4.2-5.91,6.8-6.27l14.95-2.12c5.19-.74,5.26-13.75,15.26-16.68l.38-.08c4.51.2,10.35,3.43,10.73,8.26l-.32,3.27c-.08.82,2.43.96,3.22.71,4.98-1.57,9.55-2.3,14.54-2.85s8.79-1.13,13.55.07c2.29.57,5.27,2.68,5.5,5,.54,5.33-3.36,8.45-7.89,9.04l-7.38.97-16.02,2.93-10.34,2.46c-2.51.6-4.81,1-6.52,3.31-3.55,4.84-6.43,10.22-8.05,16.21,3.51,4.79,12.55,3.56,17.34-.01l.19-5.97c.13-3.95.23-7.61,3.79-9.84,3.37-2.12,7.37-1.89,10.65.68,2.74,2.14,3.88,4.85,3.62,8.44-.13,1.83,3.03,2.83,4.77,2.29,5.79-1.78,11.76-2.05,17.31-.2,3.86,1.28,5.28,4.72,4.53,7.78-.98,3.97-3.94,5.11-7.75,5.74l-11.06,1.83c-4.5.75-7.25,3.29-8.36,7.77-.88,3.53-1.28,8.15,2.39,10.83l22.82-5.76c3.32-.84,7.24,1.02,10.38,1.93,4.61,1.32,7.3,5.69,5.89,10.16-1.08,3.44-3.17,5.37-6.28,6.81-7.66,3.54-9.32.43-16.57.93l-10.18.69c-2.03.14-4.43.12-5.79,1.48-1,1-2.51,3.47-2.39,5.4Z"/>
  <path d="M665.91,239.02l-6.97,2.85c-7.96,3.25-16.12,1.73-20.71-5.98-1.11-1.86-2.92-4.63-2.85-7,.12-4.59,2.43-9.36,6.36-11.85,3.39-2.14,8.4-3.99,12.46-3.62,9.15.83,17.82,1.34,26.26-2.24,19.59-8.31,32.35-34.07,37.24-54.38l3.07-12.77c2.79-11.59,8.22-41.07,1-44.7l-10.01-5.03c-4.36-3.24-5.41-8.52-2.39-12.88,2.82-4.08,7.45-6.94,12.63-7.09l7.64-.22,1.52-.11,10.98-1.86c4.98-.84,13.19,1.65,23.66,1.76l10.65.11c2.14.02,6.33-.03,6.96-2.56.16-3.55-2.86-4.67-6.59-5.76l-11.38-2.95-7.06-2.21c-4.86-1.52-9.79-3.42-12.12-8.55l-1.25-5.45,3.18-3.85c4.38-5.3,16.01-3.71,23.08,1.54l22.39,16.6c5.14,5.26,6.59,9.42,6.59,9.42.91,1.77,2.42,3.32,10.4,1.11,6-1.66,11.47-2.04,17.52-1.41l11.27,1.16c1.93.2,4.22,2.42,5,3.79.95,1.68.78,5.19-.7,6.76-1.92,2.03-5.16,3.35-7.73,3.09-5.71-.57-25.53,1.43-25.53,1.43l-15.67,1.41-14.68.39-12.98,2.38c-7.08,1.3-13.59,2.68-20.25,5.29l-4.2,4.76-2.86,3.91c-4.79,6.53-5.03,15.2-6.62,23.02l-1.08,10.64-1.27,11.53-3.77,21.11-5.01,22.74c-1.42,5.87-3.9,10.9-8.15,15.16l-4.23,5.31c-3.65,4.58-8.69,7.73-13.66,11.05l-16.76,7.8-8.1,4.31-5.22,2.05Z"/>
  <path d="M604.12,176.33l-11.31,19.22c-1.44,2.45-5.28,5.78-7.95,6.14-10.12,1.36-16.8-13.05-13.92-26.1,2.77-12.57,6.61-24.63,10.97-36.78,2.44-6.8,5.7-17.62,1.03-18.97-1.44-.42-3.33.71-4.46,1.76l-4.64,4.28c-1.95,3.85-4.93,5.77-9.19,5.66-3.51-.08-6.95-2.5-8.33-6.56-2.14-6.31-.38-14.5,5.55-18.55,3.06-2.09,7.31-4.59,10.86-5.21l12.94-2.26c5.21-.91,10.81-.24,15.13,2.99,3.33,2.49,5.41,7.3,4.91,11.57-.26,2.22-1.41,5.12-2.23,7.16l-7.51,18.65c-4.54,11.28-2.62,28.26,1.1,26.57,2.04-.93,4.04-2.9,5.35-4.58l6.22-7.96c.44-.57,1.82-1.16,2.41-1.18s1.16,1.85.93,2.44l-4.76,12.58c-1.16,3.08-1.35,6.16-3.1,9.14Z"/>
  <path d="M693.95,181.23c1.62,8.35-7.29,19.77-15.32,18.16-5.55-1.11-8.06-6.13-9.55-11.01-2.74-8.93-3.07-14.31-10.06-20.4-2.17-1.89-4.69-5.67-2-8.01,5.92-5.14,19.99,2.61,27.5,9.63,4.49,2.25,8.44,6.59,9.42,11.64Z"/>
  <path d="M630.24,196.35c-2.26,4.21-7.28,6.65-11.85,6.19-7.16-.71-10.64-12.16-6.25-19.18,3.41-5.47,7.88-9.79,12.27-14.4,2.86-3,5.65-5.74,9.15-8.01,3.38-2.19,8.53-1.41,10.59,2.21,1.78,3.13.47,7-1.19,9.98l-6.11,10.94-6.61,12.27Z"/>
  <path d="M589.66,92.2c-5.1,1-10.01-2.79-12.65-6.94-3.72-5.85-7.67-10.84-14.18-13.94-2.7-1.28-5.32-4.73-4.76-7.61,1.89-9.69,14.6-3.74,22.52-1.18,11.85,3.83,22.3,12.59,17.74,23.2-1.17,2.72-4.47,5.63-8.68,6.45Z"/>
  <path d="M695.68,111.46c-.89-4.01-3.36-8.49-5.77-11.75-7.31-9.88-25.4-17.62-37.16-15.92-13.21,1.91-21.09,9.55-22.72,7.79-1.2-1.3-2.33-9.39-9.63-9.72-6.79-.3-10.45,8.73-7.7,19.02,4.48,16.76,1.45,34.81,6.07,43.76,2.65,5.14,7.59,9,13.32,8.77,7.68-.31,15.32-9.27,31.37-5.41,4.33,1.04,8.94,1.09,12.84-.99,7.47-3.98,1.2-12.18,8.11-15.41,7.47-3.49,13.25-11.33,11.28-20.15ZM672.2,115.12c-.57.81-.88,1.56-.88,1.56-.68,3.38-3.08,6.22-6.63,7.83l-4.37,3.34-10.07,4.77c-3.8,1.8-8.97,1.37-13.37.74-5.57-.8-6.58-13.92-6.68-21.75-.04-2.94,1.04-6.09,4.34-6.44,2.57-.28,5.13-1.1,7.53-1.99l6.61-2.47c6.78-2.53,14.87-1.64,20.48,3.1,3.31,2.8,4.94,7.13,3.03,11.31Z"/>
  <path d="M150.59,60.01c.21-3.49-1.34-5.84-1.8-6.46l-4.15-4.62c-3.84-4.27,4.38-7.53,2.35-13.93-.56-1.76-2.96-3.99-5.47-3.91-4.25.14-6.71,5.47-8.51,5.25-2.62-.32-4.35-4.84-8.59-3.85-2.1.49-4.01,2.32-4.57,4.89-1.15,5.3,5.59,7.26,1.96,12.09l-5.21,6.94c-2.4,3.2-.61,8.19,2.75,9.58,1.51.05,4.9-.31,5.98-1.3l7.43-6.85,5.53,6.31c2.58,2.94,5.5,3.7,8.88,2.17,2.72-1.22,3.33-3.44,3.44-5.59-.02-.2-.03-.43-.01-.73Z"/>
  <path d="M215.89,69.47c-2.28-2.34-5.61-3.31-8.55-4.57-8.8-3.79-13.86.21-16.58-3.61-.91-1.28-1.14-4.56-.11-5.95,2.24-3.04,5.38-4.62,8.84-6.27,3.44-1.64,6.26-7.58,3.08-11.92-3.88-5.31-10.26-.32-12.82-2.78-1.78-1.7-.36-4.29-1.18-8.58-.92-4.8-4.66-7.94-9.16-8.56-4.61-.63-8.83,2.18-10.79,6.59-1.1,2.48-1.17,4.96-.25,7.74.97,2.92.03,7.84-3.7,7.92-6.76.16-13.3,3.84-13.61,11.29l-.08,1.85c.22,3.31,2.93,5.09,2.93,5.09v.04c2.27,1.62,5.72,3.68,10.38,3.5-.35,2.9-1.49,4.56-3.18,6.54,0,0-7.97,9.4-10.19,11.99-2.22,2.6-1.79,7.55-.55,10.01,2.15,4.28,7.84,4.55,11.25,1.62l3.29-2.82,4.84-5.57c.63-.72,3.3,1.33,3.11,2.23l-1.76,8.21c-1.17,5.46.68,11.47,6.19,12.97,4.45,1.22,10.67-3.33,12.65-9.36,3.12-9.53-2.45-14.1,2.04-17.61l11.21,6.13c1.57.86,5.44,1.44,7.42,1.39,4.2-.11,8.22-4.19,8.7-8.3.36-3.02-1.36-7.07-3.43-9.2Z"/>
</svg>
